<?xml version="1.0" encoding="UTF-8" standalone="no"?>
<svg width="32" height="32" viewBox="0 0 32 32" xmlns="http://www.w3.org/2000/svg">
  <!-- Fondo rosa suave con degradado radial como en la imagen -->
  <defs>
    <radialGradient id="pinkGradient" cx="50%" cy="50%" r="70%" fx="50%" fy="50%">
      <stop offset="0%" style="stop-color:#FF9BBB; stop-opacity:1" />
      <stop offset="70%" style="stop-color:#FFD6E5; stop-opacity:0.8" />
      <stop offset="100%" style="stop-color:#FFFFFF; stop-opacity:0" />
    </radialGradient>
  </defs>
  
  <!-- Círculo de fondo con degradado -->
  <circle cx="16" cy="16" r="14" fill="url(#pinkGradient)" />
  
  <!-- Borde del círculo -->
  <circle cx="16" cy="16" r="14" fill="none" stroke="#222" stroke-width="0.7" />
  
  <!-- Iniciales "jm" estilizadas - versión mejorada del logo original -->
  <!-- La "j" cursiva como en el logo -->
  <path d="M11 13.5c0.2 0.3 0.5 3 0.5 4.2c0 1.2 -0.6 1.7 -1.3 1.9" fill="none" stroke="#222" stroke-width="1" stroke-linecap="round" />
  <!-- El punto de la j -->
  <circle cx="10.8" cy="12.5" r="0.35" fill="#222" />
  
  <!-- La "m" cursiva con trazos elegantes y completos -->
  <path d="M12.2 17.5c0.5 -0.3 1.2 -1.8 2 -1.9c0.8 -0.1 1.3 0.6 1.3 1" fill="none" stroke="#222" stroke-width="1" stroke-linecap="round" />
  <path d="M15.5 16.6c0.1 0.4 0.3 -0.8 1.5 -1.5c1.2 -0.7 2.5 -0.5 3.3 0.1" fill="none" stroke="#222" stroke-width="1" stroke-linecap="round" />
  
  <!-- Línea horizontal izquierda con la suavidad del logo original -->
  <path d="M2 16c0 0 3.5 -0.5 8 -0.2" fill="none" stroke="#222" stroke-width="0.8" stroke-linecap="round" />
  
  <!-- Línea horizontal derecha con la suavidad del logo original -->
  <path d="M22 16c0 0 3 0.5 8 0.2" fill="none" stroke="#222" stroke-width="0.8" stroke-linecap="round" />
</svg>