<?xml version="1.0" encoding="UTF-8" standalone="no"?>
<svg width="32" height="32" viewBox="0 0 32 32" xmlns="http://www.w3.org/2000/svg">
  <!-- Fondo rosa suave con degradado radial -->
  <defs>
    <radialGradient id="pinkGradient" cx="50%" cy="50%" r="50%" fx="50%" fy="50%">
      <stop offset="0%" style="stop-color:#FF9BBB; stop-opacity:1" />
      <stop offset="100%" style="stop-color:#FFD6E5; stop-opacity:0.6" />
    </radialGradient>
  </defs>
  
  <!-- Círculo de fondo con degradado -->
  <circle cx="16" cy="16" r="15" fill="url(#pinkGradient)" />
  
  <!-- Borde del círculo -->
  <circle cx="16" cy="16" r="14.5" fill="none" stroke="#333" stroke-width="0.8" />
  
  <!-- Iniciales "jm" estilizadas - versión mucho más precisa al logo original -->
  <!-- La "j" cursiva -->
  <path d="M12 13c0 0 0 3.5 0 4.5c0 1.5 -0.8 2 -1.5 2" fill="none" stroke="#000" stroke-width="1.1" stroke-linecap="round" />
  <!-- El punto de la j -->
  <circle cx="11.3" cy="12" r="0.4" fill="#000" />
  
  <!-- La "m" cursiva, respetando la caligrafía de la imagen -->
  <path d="M12.5 17.5c0 0 1.2 -2.2 2.2 -2.3c1 -0.1 1.5 1 1.5 1.5c0 0 0.8 -2.5 2.2 -2.6c1.4 -0.1 2 0.6 2.2 1" fill="none" stroke="#000" stroke-width="1.1" stroke-linecap="round" />
  
  <!-- Línea horizontal izquierda con curvatura suave como en la imagen -->
  <path d="M1 16c0 0 5 -0.8 9 -0.5" fill="none" stroke="#333" stroke-width="0.9" stroke-linecap="round" />
  
  <!-- Línea horizontal derecha con curvatura suave como en la imagen -->
  <path d="M21 16c0 0 4 0.8 10 0" fill="none" stroke="#333" stroke-width="0.9" stroke-linecap="round" />
</svg>